 <svg version="1.0" xmlns="http://www.w3.org/2000/svg" width="700.000000pt" height="261.000000pt" viewBox="0 0 700.000000 261.000000" preserveAspectRatio="xMidYMid meet">
<metadata>
Created by potrace 1.12, written by Peter Selinger 2001-2015
</metadata>
<g transform="translate(0.000000,261.000000) scale(0.100000,-0.100000)" fill="#000000" stroke="none">
<path d="M2585 2340 c-3 -5 -15 -10 -25 -10 -31 0 -80 -112 -80 -181 0 -20 -7
-56 -15 -79 -8 -23 -15 -59 -15 -79 0 -20 -7 -49 -15 -65 -8 -15 -15 -49 -15
-75 0 -26 -6 -55 -14 -66 -7 -11 -16 -51 -20 -89 -4 -38 -10 -74 -14 -80 -4
-6 -12 -38 -19 -71 -7 -33 -21 -105 -33 -160 -11 -55 -22 -111 -24 -124 -3
-13 -9 -27 -15 -30 -18 -12 -173 -3 -181 9 -4 7 -3 29 2 49 6 20 19 74 29 121
31 144 40 184 46 200 4 8 12 49 20 90 23 131 39 204 51 233 7 16 12 43 12 62
0 19 5 46 11 62 6 15 14 48 19 73 4 25 14 59 21 77 11 28 10 36 -7 68 -10 20
-26 40 -34 45 -9 5 -107 10 -220 13 l-203 4 -29 -30 c-15 -18 -28 -35 -28 -40
0 -5 -13 -26 -28 -46 -16 -20 -31 -43 -35 -53 -3 -9 -24 -46 -46 -83 -23 -37
-41 -70 -41 -74 0 -5 -9 -16 -20 -26 -11 -10 -20 -26 -20 -35 0 -9 -5 -21 -11
-27 -11 -11 -26 -36 -49 -78 -6 -11 -19 -33 -30 -50 -11 -16 -26 -43 -35 -60
-8 -16 -24 -43 -35 -60 -10 -16 -28 -49 -40 -72 -44 -91 -54 -73 -80 137 -6
47 -14 92 -17 100 -4 8 -12 53 -19 100 -7 47 -18 105 -23 130 -6 25 -10 64
-11 87 0 23 -4 45 -10 48 -5 3 -10 21 -10 40 0 21 -9 44 -24 62 -20 23 -32 28
-69 28 -56 0 -73 -15 -132 -114 -66 -110 -67 -112 -97 -159 -16 -24 -28 -47
-28 -52 0 -5 -12 -26 -26 -47 -14 -21 -30 -47 -35 -58 -5 -11 -18 -33 -29 -50
-11 -16 -25 -41 -31 -55 -6 -14 -16 -32 -24 -40 -7 -8 -36 -58 -63 -110 -27
-52 -57 -96 -65 -98 -20 -4 -33 42 -47 178 -6 57 -16 112 -21 121 -5 10 -9 39
-9 66 0 26 -7 66 -15 88 -8 22 -15 63 -15 90 0 28 -7 68 -15 90 -8 22 -15 56
-15 76 0 47 -29 74 -78 73 -62 0 -91 -12 -108 -46 -14 -28 -15 -43 -5 -122 7
-50 15 -100 18 -111 3 -11 11 -58 18 -105 8 -47 18 -105 24 -130 6 -25 10 -64
11 -88 0 -24 4 -52 10 -62 5 -10 14 -53 20 -97 5 -43 14 -100 20 -128 5 -27
15 -84 21 -125 17 -114 27 -144 52 -168 35 -33 96 -26 131 15 14 17 26 34 26
38 0 3 13 25 28 48 16 23 32 49 35 57 4 8 16 29 26 45 11 17 29 48 41 70 12
21 30 50 41 63 10 14 19 29 19 33 0 5 20 38 45 75 25 36 45 69 45 74 0 5 12
26 26 47 14 21 37 61 50 88 14 28 29 57 34 65 5 8 11 23 14 33 9 27 49 18 57
-13 4 -14 7 -55 8 -91 1 -37 8 -86 16 -109 8 -23 15 -61 15 -83 0 -22 6 -66
14 -96 8 -31 19 -90 25 -131 25 -171 29 -191 42 -208 41 -52 100 -58 142 -14
15 15 27 31 27 34 0 3 20 36 45 74 25 37 45 73 45 80 0 6 7 17 16 24 8 8 21
27 29 44 8 17 28 54 44 81 17 28 34 57 37 65 4 8 21 38 38 65 52 83 55 88 81
135 14 25 34 59 45 75 11 17 24 39 30 50 19 35 35 62 47 76 6 8 27 46 48 84
21 39 44 77 51 86 8 8 14 19 14 22 0 4 11 25 25 47 24 38 28 40 75 40 57 0 61
-8 35 -80 -8 -23 -15 -59 -15 -79 0 -20 -4 -41 -10 -47 -5 -5 -14 -39 -19 -76
-5 -36 -14 -75 -20 -86 -6 -12 -11 -37 -11 -57 0 -19 -7 -52 -15 -72 -8 -19
-15 -52 -15 -72 -1 -20 -7 -47 -15 -61 -8 -14 -14 -41 -15 -61 0 -19 -7 -58
-15 -85 -7 -27 -17 -71 -21 -99 -3 -27 -10 -55 -15 -61 -6 -7 -12 -34 -16 -61
-5 -42 -2 -53 18 -77 l24 -27 245 -4 c232 -5 247 -4 278 15 22 13 32 27 32 44
0 13 6 28 13 34 7 6 14 35 15 65 1 31 9 74 17 97 8 24 15 57 15 74 0 17 6 43
14 57 7 14 17 53 21 85 4 32 10 64 15 69 4 6 11 41 15 79 4 38 11 79 15 90 5
12 12 43 15 69 6 42 9 48 27 45 13 -2 32 -21 47 -49 14 -25 40 -63 58 -85 59
-72 343 -455 343 -463 0 -4 10 -16 21 -27 12 -10 37 -42 56 -71 57 -90 105
-133 145 -133 20 0 41 7 48 15 7 8 19 15 26 15 24 0 49 88 74 260 5 36 14 76
19 90 5 14 12 47 15 74 3 27 10 54 15 60 5 6 14 40 20 76 6 36 18 99 26 140 9
41 21 102 26 135 6 33 17 81 25 106 7 26 14 57 14 68 0 12 5 32 11 43 15 28
-4 92 -34 113 -27 19 -70 19 -106 1 -39 -21 -51 -38 -61 -93 -5 -26 -14 -75
-20 -108 -7 -33 -18 -74 -26 -92 -8 -17 -14 -47 -14 -66 0 -19 -7 -51 -15 -70
-8 -20 -15 -54 -15 -76 0 -22 -5 -52 -12 -68 -11 -27 -18 -67 -34 -178 -6 -49
-19 -75 -34 -75 -4 0 -22 22 -39 48 -29 45 -146 207 -240 332 -78 103 -206
275 -221 296 -89 124 -115 154 -136 154 -13 0 -26 5 -29 10 -3 6 -10 10 -15
10 -5 0 -12 -4 -15 -10z"></path>
<path d="M4955 2330 c-365 -5 -414 -8 -450 -24 -40 -18 -106 -50 -149 -73 -29
-16 -160 -133 -187 -167 -33 -42 -89 -128 -89 -136 0 -5 -6 -21 -14 -37 -46
-90 -50 -113 -51 -258 0 -143 3 -160 47 -235 4 -8 11 -22 15 -30 21 -47 165
-180 195 -180 8 0 18 -4 24 -10 26 -26 122 -34 488 -37 372 -4 379 -3 401 17
30 28 72 176 91 315 4 28 10 55 14 60 4 6 11 39 15 75 4 36 14 74 21 85 8 11
14 38 14 62 0 36 -5 46 -33 67 l-34 26 -272 0 c-296 0 -306 -2 -335 -59 -29
-56 -29 -86 0 -120 l27 -32 199 2 c207 2 228 -2 210 -37 -14 -27 -32 -98 -44
-174 -6 -36 -15 -71 -21 -78 -8 -11 -75 -13 -328 -10 -285 3 -319 5 -336 21
-11 9 -24 17 -30 17 -19 0 -88 75 -112 120 -30 57 -39 201 -16 237 8 12 15 27
15 33 0 35 61 132 119 190 69 69 184 150 212 150 9 0 33 7 52 15 30 12 99 15
400 15 l363 0 26 28 c28 29 44 87 33 121 -5 18 -57 56 -67 49 -2 -1 -187 -5
-413 -8z"></path>
<path d="M5639 2318 c-26 -21 -49 -66 -49 -93 0 -14 10 -39 22 -55 l22 -30
357 0 c305 0 358 -2 369 -15 7 -8 20 -15 30 -15 28 0 137 -124 143 -163 3 -18
10 -51 15 -75 7 -31 6 -53 -4 -80 -7 -20 -13 -48 -14 -60 0 -13 -6 -36 -14
-50 -7 -15 -20 -40 -27 -57 -22 -46 -179 -199 -229 -222 -130 -61 -107 -57
-384 -61 -187 -3 -261 -1 -266 8 -7 12 4 72 26 133 8 20 14 54 14 75 0 21 5
43 10 48 11 11 30 171 22 191 -7 20 -67 53 -95 53 -34 0 -97 -55 -97 -84 0
-12 -4 -26 -9 -32 -10 -9 -18 -46 -45 -204 -8 -41 -18 -88 -25 -103 -6 -16
-11 -43 -11 -61 0 -18 -7 -41 -15 -52 -8 -11 -15 -41 -15 -70 0 -43 4 -54 29
-78 l29 -28 335 2 c427 1 483 11 640 118 26 17 52 32 56 32 12 0 100 90 142
145 40 53 109 180 109 201 0 6 9 40 20 74 25 78 28 226 5 256 -8 10 -15 28
-15 39 0 11 -6 29 -14 40 -7 11 -16 33 -20 49 -8 31 -148 176 -171 176 -7 0
-26 6 -42 14 -91 47 -83 46 -460 46 -273 0 -363 -3 -374 -12z"></path>
<path d="M489 889 c-93 -47 -117 -133 -55 -195 27 -27 42 -34 73 -34 27 0 46
-7 66 -25 35 -33 34 -57 -2 -97 -27 -30 -35 -33 -85 -32 -37 0 -61 6 -74 17
-21 20 -57 22 -68 5 -11 -18 43 -55 97 -65 56 -12 120 1 162 32 22 17 28 30
33 80 6 60 6 61 -30 93 -26 22 -47 32 -70 32 -36 0 -96 45 -96 72 1 27 47 69
86 78 32 7 47 5 82 -12 47 -22 47 -22 56 8 6 18 0 25 -37 43 -52 25 -89 25
-138 0z"></path>
<path d="M770 889 c-25 -19 -25 -19 -5 -34 26 -20 49 -15 53 11 5 34 -19 46
-48 23z"></path>
<path d="M1727 904 c-4 -4 -7 -21 -7 -39 0 -17 -5 -36 -11 -42 -6 -6 -13 -42
-16 -80 -3 -37 -11 -75 -18 -83 -7 -8 -16 -47 -19 -87 -6 -64 -5 -74 13 -92
24 -24 63 -27 80 -7 12 14 2 27 -31 39 -22 8 -23 34 -4 101 45 160 53 329 13
290z"></path>
<path d="M2730 891 c-5 -11 -10 -31 -10 -45 0 -14 -4 -28 -10 -31 -5 -3 -10
-25 -10 -49 0 -23 -6 -65 -14 -92 -8 -27 -18 -74 -21 -104 -4 -30 -12 -62 -18
-72 -18 -28 2 -41 42 -27 26 9 35 8 49 -4 13 -12 26 -14 55 -7 66 14 82 39
112 161 l18 76 -24 32 c-27 37 -57 47 -97 33 -46 -16 -54 -4 -40 59 11 56 7
89 -11 89 -6 0 -15 -9 -21 -19z m128 -211 c6 -63 -8 -117 -38 -150 -50 -54
-118 -27 -107 42 18 117 42 150 101 146 39 -3 41 -5 44 -38z"></path>
<path d="M4562 898 c-7 -7 -12 -31 -12 -54 0 -84 -30 -115 -72 -77 -16 14 -23
15 -38 5 -11 -7 -27 -12 -35 -12 -30 0 -71 -75 -84 -151 -8 -50 -9 -75 -1 -83
5 -5 10 -18 10 -28 0 -10 11 -23 24 -28 25 -9 148 -6 165 4 5 3 11 23 14 43 3
21 13 72 21 113 8 41 20 102 26 135 6 33 16 70 23 83 18 37 -15 76 -41 50z
m-81 -178 c5 0 15 -10 24 -23 13 -21 13 -30 -3 -92 -21 -82 -54 -115 -98 -99
-40 14 -48 33 -40 97 6 46 14 64 41 93 23 24 40 34 51 30 8 -3 20 -6 25 -6z"></path>
<path d="M4696 891 c-24 -26 -14 -51 19 -51 29 0 43 25 28 48 -15 24 -28 25
-47 3z"></path>
<path d="M4861 875 c-22 -25 -31 -46 -31 -71 0 -28 -5 -36 -25 -44 -29 -11
-30 -17 -11 -39 15 -18 10 -66 -19 -180 -11 -42 -13 -67 -6 -74 16 -16 38 -1
44 30 3 15 11 53 17 83 23 110 34 135 66 140 42 7 46 40 5 40 -26 0 -31 4 -31
23 0 30 27 67 49 67 24 0 45 25 37 45 -11 29 -61 18 -95 -20z"></path>
<path d="M5052 877 c-22 -23 -32 -43 -32 -64 0 -23 -8 -37 -27 -51 -26 -19
-27 -22 -12 -39 17 -19 15 -38 -20 -197 -12 -52 -4 -73 22 -63 15 6 17 11 42
152 9 49 19 93 23 97 4 3 21 8 37 10 37 4 40 30 5 38 -47 11 -28 90 21 90 10
0 23 9 29 20 27 51 -41 56 -88 7z"></path>
<path d="M3330 845 c-6 -8 -9 -19 -5 -25 11 -18 -6 -51 -32 -61 -25 -9 -25
-10 -8 -29 14 -15 16 -29 10 -72 -4 -29 -13 -72 -21 -96 -16 -49 -8 -69 39
-97 28 -17 30 -17 49 3 l20 20 -28 14 c-27 13 -29 17 -26 63 2 28 10 73 18
102 13 44 19 52 42 55 33 4 36 32 5 36 -25 4 -30 30 -13 62 8 15 6 21 -9 30
-25 13 -26 13 -41 -5z"></path>
<path d="M3525 848 c-2 -7 -5 -26 -7 -43 -2 -21 -11 -34 -31 -43 l-29 -14 20
-21 c18 -20 19 -28 10 -77 -5 -30 -15 -72 -21 -93 -19 -68 29 -116 89 -88 30
13 23 31 -11 31 -13 0 -26 4 -29 8 -6 10 9 102 27 167 12 42 18 50 38 50 29 0
39 32 12 42 -26 10 -33 24 -22 46 6 10 8 25 5 33 -7 17 -45 19 -51 2z"></path>
<path d="M6347 853 c-4 -3 -7 -21 -7 -39 0 -24 -7 -38 -27 -52 -26 -19 -27
-21 -11 -39 13 -15 14 -28 6 -83 -5 -36 -14 -69 -19 -75 -12 -12 -11 -52 1
-75 14 -26 77 -37 97 -17 14 14 12 17 -17 32 l-33 17 7 66 c4 36 11 71 16 77
4 5 10 21 12 35 2 20 9 25 33 25 36 0 42 28 8 33 -27 4 -38 34 -21 61 7 11 10
22 8 24 -11 10 -47 17 -53 10z"></path>
<path d="M1817 774 c-11 -11 5 -178 19 -201 24 -38 18 -109 -13 -150 -15 -19
-38 -39 -51 -44 -28 -11 -24 -33 7 -37 37 -6 67 23 107 103 21 42 44 81 51 87
7 6 13 18 13 28 0 10 7 23 15 30 8 7 15 20 15 30 0 10 7 23 15 30 8 7 15 17
15 22 0 5 9 21 20 35 22 28 26 58 9 68 -21 14 -55 -36 -119 -178 -12 -26 -25
-45 -30 -42 -4 2 -10 26 -14 52 -4 27 -11 71 -14 98 -10 66 -25 89 -45 69z"></path>
<path d="M2315 770 c-3 -5 -16 -10 -29 -10 -23 0 -56 -28 -56 -48 0 -20 19
-23 50 -7 17 9 48 15 68 13 30 -2 38 -8 47 -31 14 -42 -12 -57 -96 -57 -63 0
-69 -2 -88 -29 -21 -29 -28 -85 -13 -109 5 -7 26 -21 47 -32 36 -18 40 -18 57
-4 11 11 27 15 45 11 40 -8 61 8 68 51 3 20 13 67 22 103 19 79 12 116 -25
130 -15 6 -35 15 -44 20 -23 12 -45 11 -53 -1z m63 -193 c6 -28 -46 -77 -81
-77 -64 0 -85 35 -45 77 19 20 31 23 73 21 39 -2 51 -7 53 -21z"></path>
<path d="M3725 761 c-54 -32 -84 -90 -91 -174 -7 -73 -6 -76 21 -101 46 -43
165 -33 180 14 11 35 -10 46 -41 21 -53 -42 -129 -12 -122 47 3 27 3 27 96 30
87 3 93 4 104 27 15 34 -7 109 -38 130 -37 24 -76 26 -109 6z m83 -47 c24 -17
29 -56 10 -72 -19 -14 -120 -10 -126 6 -5 15 60 82 80 82 7 0 24 -7 36 -16z"></path>
<path d="M4683 768 c-12 -20 -42 -149 -43 -185 0 -17 -4 -34 -9 -37 -15 -10
-22 -68 -10 -83 10 -11 16 -10 36 8 18 18 23 33 23 71 0 27 6 61 14 76 20 41
27 138 11 152 -10 8 -15 8 -22 -2z"></path>
<path d="M5232 766 c-64 -24 -101 -84 -109 -183 -6 -62 14 -97 66 -119 29 -13
43 -13 76 -4 59 17 70 25 73 49 5 31 -24 38 -52 12 -31 -30 -81 -28 -102 3 -8
14 -14 35 -12 48 3 22 8 23 88 26 46 2 90 8 97 14 7 6 13 31 13 57 0 49 -13
68 -67 99 -26 14 -27 14 -71 -2z m80 -63 c21 -19 23 -44 6 -61 -7 -7 -38 -12
-70 -12 -69 0 -80 14 -47 59 18 24 30 31 58 31 19 0 43 -7 53 -17z"></path>
<path d="M753 758 c-5 -7 -15 -38 -21 -68 -46 -224 -47 -230 -32 -230 35 0 48
21 55 87 3 38 11 78 17 89 14 30 16 126 2 131 -6 2 -15 -2 -21 -9z"></path>
<path d="M935 761 l-50 -6 -5 -45 c-3 -25 -11 -55 -18 -67 -7 -12 -12 -37 -12
-55 0 -18 -5 -50 -11 -72 -9 -31 -8 -41 4 -53 22 -22 37 -7 37 35 0 20 7 50
15 66 8 15 15 47 15 70 0 54 30 86 82 86 56 0 61 -14 43 -116 -24 -135 -24
-139 5 -139 23 0 25 4 31 60 3 33 11 70 17 82 7 12 12 32 12 46 0 51 88 90
119 53 15 -18 4 -127 -15 -165 -18 -33 -18 -65 -1 -80 24 -19 46 19 53 90 4
35 10 69 14 74 4 6 10 26 13 45 13 76 -81 126 -158 84 -33 -18 -36 -18 -64 -1
-30 17 -40 18 -126 8z"></path>
<path d="M1440 761 l-55 -6 -6 -43 c-3 -23 -11 -48 -17 -54 -7 -7 -12 -38 -12
-70 0 -33 -7 -72 -14 -87 -8 -15 -16 -57 -18 -92 -3 -58 -1 -64 17 -64 15 0
21 8 23 30 2 17 8 35 12 41 5 5 7 20 3 32 -7 29 21 40 46 18 10 -9 25 -16 34
-16 47 0 116 56 117 95 0 11 7 33 15 49 8 15 15 49 15 75 0 80 -44 105 -160
92z m96 -52 c10 -17 7 -110 -5 -141 -26 -68 -94 -91 -125 -43 -12 19 -14 30
-6 44 5 11 10 35 10 53 0 18 9 48 20 66 17 27 25 32 59 32 22 0 43 -5 47 -11z"></path>
<path d="M3050 753 c-71 -36 -113 -183 -71 -250 32 -51 124 -61 189 -20 17 11
15 46 -3 53 -8 3 -26 -4 -41 -15 -15 -12 -37 -21 -50 -21 -34 0 -66 35 -62 68
3 27 4 27 88 30 46 2 90 8 97 14 22 18 16 93 -10 123 -29 35 -89 43 -137 18z
m103 -51 c21 -18 22 -45 3 -61 -19 -16 -128 -10 -134 7 -2 7 12 28 32 48 38
38 61 39 99 6z"></path>
<path d="M4065 761 c-11 -5 -30 -7 -43 -4 -27 6 -55 -14 -47 -35 3 -8 1 -20
-5 -27 -5 -6 -14 -38 -19 -71 -5 -32 -15 -78 -22 -102 -9 -33 -9 -46 0 -55 24
-24 46 6 54 79 8 65 29 134 50 162 6 7 33 12 68 12 32 0 60 4 63 9 15 23 -62
48 -99 32z"></path>
<path d="M5525 761 l-60 -6 -6 -60 c-4 -33 -11 -71 -17 -85 -5 -14 -12 -53
-13 -85 -4 -55 -2 -60 16 -60 15 0 21 8 23 30 1 17 7 39 12 50 5 11 10 43 13
71 2 28 12 63 23 78 17 24 24 27 72 23 36 -3 56 1 64 10 24 29 -29 44 -127 34z"></path>
<path d="M5763 763 c-36 -7 -81 -67 -88 -118 -4 -25 -11 -48 -16 -51 -30 -18
17 -124 55 -124 12 0 27 -5 34 -12 9 -9 18 -9 37 0 14 7 37 12 50 12 26 0 50
32 41 56 -7 19 -23 18 -53 -6 -47 -37 -106 -18 -114 35 -6 38 8 45 95 45 59 0
87 4 95 14 18 21 7 105 -16 128 -20 20 -79 30 -120 21z m81 -54 c28 -22 33
-48 14 -67 -7 -7 -39 -12 -75 -12 -71 0 -79 11 -42 58 35 45 64 51 103 21z"></path>
<path d="M6061 761 l-55 -6 -12 -70 c-7 -38 -17 -86 -23 -105 -12 -39 -15
-113 -4 -123 10 -11 33 14 33 37 0 11 7 39 15 61 8 22 14 55 15 73 0 18 10 46
22 62 18 25 29 30 65 30 58 0 72 -27 50 -97 -33 -104 -39 -145 -23 -161 24
-24 46 2 46 52 0 23 4 46 10 52 13 13 24 116 16 149 -7 26 -58 57 -88 53 -7
-1 -37 -4 -67 -7z"></path>
</g>
</svg>